HIERARCHY
ROOT hip
{
  OFFSET 0 0 0
  CHANNELS 6 Xposition Yposition Zposition Zrotation Yrotation Xrotation
  JOINT abdomen
  {
    OFFSET 0 20.6881 -0.73152
    CHANNELS 3 Zrotation Xrotation Yrotation
    JOINT chest
    {
      OFFSET 0 11.7043 -0.48768
      CHANNELS 3 Zrotation Xrotation Yrotation
      JOINT neck
      {
        OFFSET 0 22.1894 -2.19456
        CHANNELS 3 Zrotation Xrotation Yrotation
        JOINT head
        {
          OFFSET -0.24384 7.07133 1.2192
          CHANNELS 3 Zrotation Xrotation Yrotation
          JOINT leftEye
          {
            OFFSET 4.14528 8.04674 8.04672
            CHANNELS 3 Zrotation Xrotation Yrotation
            End Site
            {
              OFFSET 1 0 0
            }
          }
          JOINT rightEye
          {
            OFFSET -3.6576 8.04674 8.04672
            CHANNELS 3 Zrotation Xrotation Yrotation
            End Site
            {
              OFFSET 1 0 0
            }
          }
        }
      }
      JOINT rCollar
      {
        OFFSET -2.68224 19.2634 -4.8768
        CHANNELS 3 Zrotation Xrotation Yrotation
        JOINT rShldr
        {
          OFFSET -8.77824 -1.95073 1.46304
          CHANNELS 3 Zrotation Xrotation Yrotation
          JOINT rForeArm
          {
            OFFSET -28.1742 -1.7115 0.48768
            CHANNELS 3 Zrotation Xrotation Yrotation
            JOINT rHand
            {
              OFFSET -22.5879 0.773209 7.07136
              CHANNELS 3 Zrotation Xrotation Yrotation
              JOINT rThumb1
              {
                OFFSET -1.2192 -0.487915 3.41376
                CHANNELS 3 Zrotation Xrotation Yrotation
                JOINT rThumb2
                {
                  OFFSET -3.37035 -0.52449 3.41376
                  CHANNELS 3 Zrotation Xrotation Yrotation
                  End Site
                  {
                    OFFSET -1.78271 -1.18214 1.43049
                  }
                }
              }
              JOINT rIndex1
              {
                OFFSET -7.75947 0.938293 5.60832
                CHANNELS 3 Zrotation Xrotation Yrotation
                JOINT rIndex2
                {
                  OFFSET -2.54057 -0.884171 1.56538
                  CHANNELS 3 Zrotation Xrotation Yrotation
                  End Site
                  {
                    OFFSET -1.62519 -0.234802 1.16502
                  }
                }
              }
              JOINT rMid1
              {
                OFFSET -8.24714 1.18213 3.41376
                CHANNELS 3 Zrotation Xrotation Yrotation
                JOINT rMid2
                {
                  OFFSET -3.10165 -0.590103 1.0647
                  CHANNELS 3 Zrotation Xrotation Yrotation
                  End Site
                  {
                    OFFSET -2.48547 -0.328903 0.83742
                  }
                }
              }
              JOINT rRing1
              {
                OFFSET -8.82822 0.546677 1.51678
                CHANNELS 3 Zrotation Xrotation Yrotation
                JOINT rRing2
                {
                  OFFSET -2.60934 -0.819778 -0.0198488
                  CHANNELS 3 Zrotation Xrotation Yrotation
                  End Site
                  {
                    OFFSET -2.33842 -0.294052 0.168128
                  }
                }
              }
              JOINT rPinky1
              {
                OFFSET -8.27202 -0.0477905 -0.4584
                CHANNELS 3 Zrotation Xrotation Yrotation
                JOINT rPinky2
                {
                  OFFSET -1.82734 -0.647385 -0.700984
                  CHANNELS 3 Zrotation Xrotation Yrotation
                  End Site
                  {
                    OFFSET -1.69225 -0.51767 -0.607171
                  }
                }
              }
            }
          }
        }
      }
      JOINT lCollar
      {
        OFFSET 2.68224 19.2634 -4.8768
        CHANNELS 3 Zrotation Xrotation Yrotation
        JOINT lShldr
        {
          OFFSET 8.77824 -1.95073 1.46304
          CHANNELS 3 Zrotation Xrotation Yrotation
          JOINT lForeArm
          {
            OFFSET 28.1742 -1.7115 0.48768
            CHANNELS 3 Zrotation Xrotation Yrotation
            JOINT lHand
            {
              OFFSET 22.5879 0.773209 7.07136
              CHANNELS 3 Zrotation Xrotation Yrotation
              JOINT lThumb1
              {
                OFFSET 1.2192 -0.487915 3.41376
                CHANNELS 3 Zrotation Xrotation Yrotation
                JOINT lThumb2
                {
                  OFFSET 3.37035 -0.52449 3.41376
                  CHANNELS 3 Zrotation Xrotation Yrotation
                  End Site
                  {
                    OFFSET 1.78271 -1.18214 1.43049
                  }
                }
              }
              JOINT lIndex1
              {
                OFFSET 7.75947 0.938293 5.60832
                CHANNELS 3 Zrotation Xrotation Yrotation
                JOINT lIndex2
                {
                  OFFSET 2.54057 -0.884171 1.56538
                  CHANNELS 3 Zrotation Xrotation Yrotation
                  End Site
                  {
                    OFFSET 1.62519 -0.234802 1.16502
                  }
                }
              }
              JOINT lMid1
              {
                OFFSET 8.24714 1.18213 3.41376
                CHANNELS 3 Zrotation Xrotation Yrotation
                JOINT lMid2
                {
                  OFFSET 3.10165 -0.590103 1.0647
                  CHANNELS 3 Zrotation Xrotation Yrotation
                  End Site
                  {
                    OFFSET 2.48547 -0.328903 0.83742
                  }
                }
              }
              JOINT lRing1
              {
                OFFSET 8.82822 0.546677 1.51678
                CHANNELS 3 Zrotation Xrotation Yrotation
                JOINT lRing2
                {
                  OFFSET 2.60934 -0.819778 -0.0198488
                  CHANNELS 3 Zrotation Xrotation Yrotation
                  End Site
                  {
                    OFFSET 2.33842 -0.294052 0.168128
                  }
                }
              }
              JOINT lPinky1
              {
                OFFSET 8.27202 -0.0477905 -0.4584
                CHANNELS 3 Zrotation Xrotation Yrotation
                JOINT lPinky2
                {
                  OFFSET 1.82734 -0.647385 -0.700984
                  CHANNELS 3 Zrotation Xrotation Yrotation
                  End Site
                  {
                    OFFSET 1.69225 -0.51767 -0.607171
                  }
                }
              }
            }
          }
        }
      }
    }
  }
  JOINT rButtock
  {
    OFFSET -8.77824 4.35084 1.2192
    CHANNELS 3 Zrotation Xrotation Yrotation
    JOINT rThigh
    {
      OFFSET 0 -1.70687 -2.19456
      CHANNELS 3 Zrotation Xrotation Yrotation
      JOINT rShin
      {
        OFFSET 0 -36.8199 0.73152
        CHANNELS 3 Zrotation Xrotation Yrotation
        JOINT rFoot
        {
          OFFSET 0.73152 -45.1104 -5.12064
          CHANNELS 3 Zrotation Xrotation Yrotation
          End Site
          {
            OFFSET -1.1221 -3.69964 12.103
          }
        }
      }
    }
  }
  JOINT lButtock
  {
    OFFSET 8.77824 4.35084 1.2192
    CHANNELS 3 Zrotation Xrotation Yrotation
    JOINT lThigh
    {
      OFFSET 0 -1.70687 -2.19456
      CHANNELS 3 Zrotation Xrotation Yrotation
      JOINT lShin
      {
        OFFSET 0 -36.8199 0.73152
        CHANNELS 3 Zrotation Xrotation Yrotation
        JOINT lFoot
        {
          OFFSET -0.73152 -45.1104 -5.12064
          CHANNELS 3 Zrotation Xrotation Yrotation
          End Site
          {
            OFFSET 1.1221 -3.69964 12.103
          }
        }
      }
    }
  }
}
MOTION
Frames:	9
Frame Time:	0.03333
0.0 0.0 0.0 0.0 0.0 0.0 0.0 0.0 0.0 0.0 0.0 0.0 0.0 0.0 0.0 0.0 0.0 0.0 0.0 0.0 0.0 0.0 0.0 0.0 0.0 0.0 0.0 0.0 0.0 0.0 0.0 0.0 0.0 0.0 0.0 0.0 0.0 0.0 0.0 0.0 0.0 0.0 0.0 0.0 0.0 0.0 0.0 0.0 0.0 0.0 0.0 0.0 0.0 0.0 0.0 0.0 0.0 0.0 0.0 0.0 0.0 0.0 0.0 0.0 0.0 0.0 0.0 0.0 0.0 0.0 0.0 0.0 0.0 0.0 0.0 0.0 0.0 0.0 0.0 0.0 0.0 0.0 0.0 0.0 0.0 0.0 0.0 0.0 0.0 0.0 0.0 0.0 0.0 0.0 0.0 0.0 0.0 0.0 0.0 0.0 0.0 0.0 0.0 0.0 0.0 0.0 0.0 0.0 0.0 0.0 0.0 0.0 0.0 0.0 0.0 0.0 0.0 0.0 0.0 0.0 0.0 0.0 0.0 0.0 0.0 0.0 0.0 0.0 0.0 0.0 0.0 0.0
1.2215 29.2324 0.6886 -5.714393 -66.296172 3.338152 1.655524 -3.993143 0.18415 11.100959 5.777128 -87.992721 -11.224145 -14.037352 85.610847 -45.13905 -17.878609 -165.257003 175.314316 -1.368582 32.548054 21.132814 2.102373 11.235594 -170.161538 31.516848 -155.264341 83.106802 -12.401278 165.877439 164.163402 74.383705 18.635316 -23.629193 -37.097349 -169.841887 64.879183 -20.171308 -1.069285 -111.793128 31.794178 -67.88353 -8.652987 -6.801668 -95.252608 163.459948 -12.11678 -115.956344 141.46657 -16.45877 -133.161813 -168.420125 -57.641532 67.373083 85.5501 39.265181 97.953207 -29.463905 33.045622 -11.238165 175.709822 -45.416246 20.590122 156.380442 -12.384491 57.306073 36.574243 -4.761259 170.227201 -175.756881 77.526722 112.1501 4.645422 -70.679663 151.215661 80.307714 -12.87836 71.313866 152.605201 -1.874465 -115.628163 163.158004 83.209376 76.609075 147.954129 14.474663 -179.813088 -46.029972 -87.137446 144.049946 0.026301 32.290818 174.882529 -87.073039 -56.177038 100.04308 159.970246 1.097248 -177.831179 28.270883 -12.13992 25.281329 171.001323 -35.810949 30.435427 -61.846779 68.14754 14.312375 12.701164 -81.208531 -0.0 -71.900493 73.06659 154.940529 -8.636972 -4.684552 -85.385466 -46.321528 9.794354 105.404519 156.697271 -25.394475 -98.31592 149.802267 -21.81956 -180.0 -3.466013 13.755539 140.540623 -78.144657 0.033273 -170.791621
1.8051000000000001 52.6192 0.6165999999999999 -2.993612 -15.323108 13.150461 -7.85266 -18.086148 -180.0 -12.505832 -7.028827 -166.394258 -16.15497 1.621744 -8.586364 32.600515 -19.707002 -8.118106 159.321228 10.037564 -51.408192 135.5785 15.855791 -37.66468 30.317144 -0.768832 -26.401786 -81.368922 57.481203 96.017345 39.505401 83.221948 -137.358212 178.551226 38.44276 148.645404 -167.673987 7.711254 58.815125 51.944738 18.469643 97.003535 -14.154801 -44.178727 -102.59384 62.364251 -57.468253 -107.031423 149.625581 -32.069649 -109.733211 -87.689598 79.801471 -95.586497 141.363023 78.976604 104.607828 56.128267 -41.774529 164.921045 129.874232 62.103389 82.30829 -30.33102 -57.137649 138.185451 77.269199 -82.04751 124.381373 28.507806 -70.505442 56.695897 -99.445296 -38.172403 104.894519 -14.660695 68.085083 44.231787 123.323977 35.526468 -27.908952 81.883377 -50.493085 -95.428293 116.765939 83.131547 -69.628924 -14.91729 67.026803 -5.791712 -136.484326 77.615852 65.442625 121.666351 43.816385 77.243833 142.121817 61.556731 -72.817671 -145.895956 -1.246843 148.748877 65.015967 -37.462753 60.331107 65.260565 76.915184 -83.948973 -81.741885 -0.298865 -90.861173 74.125256 65.722222 17.557787 11.661988 24.476931 95.708479 -19.653199 -46.590037 -154.530566 -15.77511 3.534434 -0.0 21.410099 -26.353812 41.453489 3.109624 20.169738 -87.193221 -35.531959 -16.995597 89.458391
2.7508999999999997 66.208 0.8591 0.637013 -15.087804 23.059968 -19.05127 -21.147901 -111.001788 2.724218 22.395833 117.405332 -24.286484 28.627541 -161.567319 -25.810929 22.46279 134.123184 94.286974 -5.49881 5.925704 54.336014 -21.840635 -41.205677 14.62761 44.681807 -17.894178 43.230677 -37.345584 40.037687 116.110194 -19.350184 70.324098 -123.034394 71.169409 121.348243 148.02519 27.674516 98.463015 156.3867 33.996565 56.712978 -6.982011 62.726639 5.990468 72.20323 -38.502554 70.499675 -9.885591 28.776549 -43.309965 -74.334356 24.172104 87.71355 -109.389364 -7.261948 -77.838217 -17.264732 38.615453 -157.992545 -17.69504 27.664031 -53.324014 171.630786 -40.99532 141.580844 21.635877 -86.209575 59.733642 155.927266 -1.483133 -173.072291 85.715073 -66.302628 -14.018307 -31.381924 -32.479177 -15.946299 166.751983 4.315318 -140.613293 11.404147 10.134015 35.854738 174.968158 70.646606 -171.373196 -171.441601 -4.490591 143.229411 109.288219 43.286124 143.534709 -171.803748 57.909096 75.484186 171.035153 -44.067475 172.766729 74.963807 -43.341944 -176.10869 81.394591 48.108965 154.256483 -17.243937 -66.989292 99.647769 -84.869203 3.008518 -76.18251 83.126713 28.104974 -86.749942 -51.738187 4.497547 -57.16107 179.340748 46.814162 -109.796533 1.005415 -7.235553 -1.155982 4.969058 -37.304902 -180.0 11.283109 -43.414877 -81.523702 18.722687 -69.033851 -89.136959
3.0793 65.2178 1.0299 3.210371 -17.791276 25.604171 -26.930739 -17.859466 -180.0 -24.354919 18.896542 -172.502314 -19.812496 35.557701 -143.28317 -13.46145 22.9143 110.443025 74.27958 17.584454 23.083857 31.262865 -14.487498 -48.862446 -164.334259 26.798355 177.149395 151.232508 -32.881118 167.116021 90.16099 -22.704725 71.559506 -64.652171 63.473259 59.217894 145.157162 1.334155 106.187261 127.211149 -47.730084 142.305673 -124.674575 3.017417 139.721323 -3.734338 -69.604182 -46.025278 -104.721541 -76.192776 -131.284855 -15.1408 27.510847 14.384448 -92.222501 -24.980346 -100.710446 87.908839 -51.819189 -91.379668 -4.19526 42.338017 -16.623401 17.49935 -45.866999 29.35924 -8.852132 0.527548 -8.009728 -17.57585 -20.977339 -4.382699 -7.882956 50.34643 -99.53647 -2.972886 8.390366 -2.339222 0.81796 7.598718 66.416934 -46.684107 -21.400178 -80.535201 137.938358 -55.035885 -161.808378 -94.112188 -27.793948 21.657574 25.759759 -45.907587 171.100512 -179.914176 -46.609553 -1.805627 149.221661 21.95316 -163.262821 71.691744 -32.113543 146.393567 30.887797 33.450449 -145.133812 -88.764843 80.0622 -110.031092 28.738168 2.309095 65.960236 -68.458694 3.226058 -83.61182 -8.438523 59.213101 139.137098 -23.773795 18.894876 -133.025196 24.438585 -1.091853 38.653853 -47.308469 -29.824552 -125.811136 -60.428872 -10.687632 -110.060716 -73.60536 -11.040051 -175.763807
2.3993 61.9586 1.0194 4.293513 -21.924855 22.538873 -25.285775 -4.298648 -89.269048 25.626016 22.955961 94.444712 2.465101 21.787066 52.29673 -1.698355 -4.709654 -95.129635 75.526791 0.486414 0.627907 1.85454 -1.078004 -60.334115 -178.907364 52.054155 -179.272568 128.82213 -33.006406 147.855373 -163.974958 -3.534225 104.937956 -175.221594 -1.766387 154.703994 -2.17586 -36.641425 4.517087 10.118832 14.072205 -58.781845 33.627104 56.371068 -18.191909 -149.166781 64.843415 63.018646 -156.872753 -42.346018 169.603178 17.960067 2.654279 8.891213 88.63932 61.070444 -77.703662 -123.699499 -24.052636 41.853864 87.218689 84.488201 -90.931946 -140.704091 -11.44323 166.888054 -86.843555 -76.20727 -57.444048 -90.235453 89.607717 90.386069 138.226852 -38.475603 -69.512301 -148.489568 -44.812994 -126.537092 -159.545996 72.270304 -142.397286 146.033766 48.665561 -51.682491 -16.196646 -48.635152 -16.234951 166.007011 -25.408124 -109.382449 126.292237 -68.176582 -100.534771 -161.871448 -6.549101 -10.008522 90.122872 49.716035 -94.227389 59.827346 31.064492 101.561249 47.397928 1.641386 -147.621229 -13.859916 4.493396 172.83308 12.757297 -30.96214 17.136951 -28.427939 -21.292386 -107.108403 -66.946392 15.731205 -132.428774 81.210441 43.884218 172.258697 -106.267541 31.235426 -81.395424 132.648194 27.363874 0.0 -12.803296 56.573102 -59.557781 50.763956 -84.047744 139.986879
0.8545 61.0696 0.9984 4.579767 -26.075088 18.142784 -29.511202 9.008274 -0.0 33.73969 -23.090111 22.679616 3.152902 23.250668 78.528547 -11.657682 -1.386602 -117.528639 73.780615 -15.66721 -20.774534 -17.958511 8.059603 -48.058965 -166.483409 -4.368147 -170.012545 -82.551661 -55.637391 -55.427339 -3.499607 75.35658 -65.797288 -168.657147 18.039509 150.971383 -160.889749 25.396792 76.089586 -67.403479 -65.237301 47.071321 -40.524809 -52.939087 -126.845623 -59.876986 -18.636704 130.826598 -98.149136 79.700411 90.615172 -168.590326 -57.287824 173.101823 -91.271029 -15.627863 -93.099643 -58.906575 42.773938 -111.055887 -168.243442 -33.766723 -122.066978 158.750288 -19.913075 -122.473454 50.276175 50.67395 -67.218116 -101.532471 -70.562777 -72.158608 126.771775 -48.062281 -91.002516 -135.808795 -55.120475 -107.048512 -87.15711 -70.767186 -81.515569 15.567128 38.418265 -7.863933 -2.064357 -49.388476 -37.297507 124.524074 -2.014381 -146.787655 32.241194 12.30187 -103.135203 -72.507791 -27.139196 94.334436 83.531819 30.575923 -80.588759 -45.352772 10.680621 -141.557661 -134.843857 -33.329695 -72.652734 -129.216785 48.377599 -117.215322 57.97272 40.487261 112.10426 -136.066115 50.604142 -135.774316 -62.773886 -30.500464 20.0631 76.703875 49.204401 24.115685 -37.587463 -27.826507 35.691474 5.418886 -42.869335 -172.062243 -63.968353 -33.46521 -149.229778 -13.315481 0.658614 -97.733732
-0.5335000000000001 65.1105 0.4764 0.287876 -18.842488 13.526383 -13.201339 16.249746 3.218978 22.509475 -19.04169 11.6464 -17.821196 8.942152 -13.052902 16.159029 -4.419536 -11.179111 69.291311 -23.942415 -34.115548 -15.709448 5.190951 -36.379712 -107.384889 77.751664 90.309414 -117.173091 36.397938 89.759742 -158.975658 9.311963 -145.849283 8.755806 -53.556292 11.093743 177.101868 -7.439207 96.133184 -169.881012 19.983239 24.691651 -145.223573 51.856452 166.156173 43.450803 58.610869 -120.233511 -38.442497 -81.305507 -93.471618 43.568962 -5.923903 35.514078 -143.266562 9.746838 -103.343726 108.146866 -24.626272 -133.272826 -70.460142 -26.568088 -22.103701 -113.110803 27.028438 -91.979981 137.318789 7.009958 -152.075391 152.578599 46.227855 -149.831475 -117.544902 -1.04354 19.234665 148.788022 62.681307 -110.940497 10.365595 -14.033023 4.238849 -6.441049 -10.677991 -14.98312 -5.265695 -35.967739 -35.439765 29.958465 -64.904319 144.252582 72.864981 -35.383153 -108.978931 -134.202621 -23.852308 25.630265 13.265121 -21.848699 -70.648407 -116.814326 21.6748 -6.954948 -131.801788 -22.26285 -43.223616 -88.97348 41.549145 -169.501239 72.581867 23.128436 97.025174 -116.338949 48.240027 21.012779 50.808842 38.004122 -11.204809 132.193227 -72.855086 37.42514 -69.145222 61.323168 -180.0 -129.75896 26.546085 51.62529 52.432531 -32.828974 -139.43565 64.202535 25.919239 -1.07318
-1.9136 66.02090000000001 -0.335 -1.358584 -16.000651 12.388978 -4.399082 13.127406 -77.489943 15.374923 12.350499 79.987887 -26.015327 15.962108 -79.678191 25.367703 16.142049 57.963268 73.044501 -17.862452 -23.96193 -16.938954 5.772223 -37.408807 -101.516862 68.66747 84.472853 82.00061 -45.67924 98.222024 176.22357 10.526133 99.04723 -159.290349 28.258481 141.141099 -94.181962 45.944209 41.443794 24.818383 24.139445 65.576766 -16.039811 60.698213 8.92682 -165.864572 13.662051 77.750507 -140.640422 -59.893439 154.821797 -64.022874 40.73821 95.62432 81.476965 24.321106 -74.778498 -161.150159 8.102154 61.844469 -109.228039 -40.141185 -63.07081 -155.646736 11.173763 -77.607237 141.824432 -23.33944 -166.666892 -10.284807 -57.608354 -5.211269 179.715224 -60.854303 88.118062 7.911489 20.135076 13.404279 178.202316 -6.82441 -102.712008 106.818345 -83.296065 145.137102 165.698756 0.695373 -93.559473 97.931369 34.926497 19.76827 150.587017 -50.265953 -42.917891 -172.281806 -2.704152 -6.388876 -109.680112 -34.707044 -109.672791 -108.967207 -20.503339 103.881825 20.844343 12.465624 176.899828 -132.42101 -58.725793 -20.976758 20.245047 -37.690904 0.0 -22.679383 -13.970905 -75.257559 -57.590678 13.925852 107.707768 98.254989 -54.235079 2.692831 -54.62047 -47.19064 12.909523 42.345219 -25.372355 -180.0 -35.405727 -50.904586 112.789294 60.489608 18.199602 -2.4698
